<mxfile host="app.diagrams.net" agent="Mozilla/5.0 (Windows NT 10.0; Win64; x64) AppleWebKit/537.36 (KHTML, like Gecko) Chrome/128.0.0.0 Safari/537.36" version="24.7.7">
  <diagram name="Page-1" id="3bE-8l1tNV6zikIUYMkp">
    <mxGraphModel dx="3749" dy="4356" grid="1" gridSize="10" guides="1" tooltips="1" connect="1" arrows="1" fold="1" page="1" pageScale="1" pageWidth="850" pageHeight="1100" math="0" shadow="0">
      <root>
        <mxCell id="0" />
        <mxCell id="1" parent="0" />
        <mxCell id="F2Yh3sDUFO-WP7J78He4-1" style="edgeStyle=none;rounded=0;orthogonalLoop=1;jettySize=auto;html=1;exitX=1;exitY=0.5;exitDx=0;exitDy=0;elbow=vertical;endArrow=none;endFill=0;dashed=1;fillColor=#f5f5f5;strokeColor=#666666;dashPattern=1 4;strokeWidth=1;" edge="1" parent="1">
          <mxGeometry relative="1" as="geometry">
            <mxPoint x="-40" y="-2340.833333333333" as="targetPoint" />
            <mxPoint x="-1040" y="-2340.5" as="sourcePoint" />
          </mxGeometry>
        </mxCell>
        <mxCell id="F2Yh3sDUFO-WP7J78He4-2" style="edgeStyle=none;rounded=0;orthogonalLoop=1;jettySize=auto;html=1;exitX=1;exitY=0.5;exitDx=0;exitDy=0;elbow=vertical;endArrow=none;endFill=0;dashed=1;fillColor=#f5f5f5;strokeColor=#666666;dashPattern=1 4;strokeWidth=1;" edge="1" parent="1">
          <mxGeometry relative="1" as="geometry">
            <mxPoint x="-40" y="-2420.713333333333" as="targetPoint" />
            <mxPoint x="-1040" y="-2420.38" as="sourcePoint" />
          </mxGeometry>
        </mxCell>
        <mxCell id="F2Yh3sDUFO-WP7J78He4-3" style="edgeStyle=none;rounded=0;orthogonalLoop=1;jettySize=auto;html=1;exitX=1;exitY=0.5;exitDx=0;exitDy=0;elbow=vertical;endArrow=none;endFill=0;dashed=1;fillColor=#f5f5f5;strokeColor=#666666;dashPattern=1 4;strokeWidth=1;" edge="1" parent="1">
          <mxGeometry relative="1" as="geometry">
            <mxPoint x="-40" y="-2500.963333333333" as="targetPoint" />
            <mxPoint x="-1040" y="-2500.63" as="sourcePoint" />
          </mxGeometry>
        </mxCell>
        <mxCell id="F2Yh3sDUFO-WP7J78He4-4" style="edgeStyle=none;rounded=0;orthogonalLoop=1;jettySize=auto;html=1;exitX=1;exitY=0.5;exitDx=0;exitDy=0;elbow=vertical;endArrow=none;endFill=0;dashed=1;fillColor=#f5f5f5;strokeColor=#666666;dashPattern=1 4;strokeWidth=1;" edge="1" parent="1">
          <mxGeometry relative="1" as="geometry">
            <mxPoint x="-40" y="-2580.583333333333" as="targetPoint" />
            <mxPoint x="-1040" y="-2580.25" as="sourcePoint" />
          </mxGeometry>
        </mxCell>
        <mxCell id="F2Yh3sDUFO-WP7J78He4-5" style="edgeStyle=none;rounded=0;orthogonalLoop=1;jettySize=auto;html=1;exitX=1;exitY=0.5;exitDx=0;exitDy=0;elbow=vertical;endArrow=none;endFill=0;dashed=1;fillColor=#f5f5f5;strokeColor=#666666;dashPattern=1 4;strokeWidth=1;" edge="1" parent="1">
          <mxGeometry relative="1" as="geometry">
            <mxPoint x="-40" y="-2660.833333333333" as="targetPoint" />
            <mxPoint x="-1040" y="-2660.5" as="sourcePoint" />
          </mxGeometry>
        </mxCell>
        <mxCell id="F2Yh3sDUFO-WP7J78He4-6" value="Staging" style="rounded=1;whiteSpace=wrap;html=1;fillColor=#dae8fc;strokeColor=#6c8ebf;fontSize=14;" vertex="1" parent="1">
          <mxGeometry x="-1160" y="-2600" width="120" height="40" as="geometry" />
        </mxCell>
        <mxCell id="F2Yh3sDUFO-WP7J78He4-7" value="Development" style="rounded=1;whiteSpace=wrap;html=1;fillColor=#e1d5e7;strokeColor=#9673a6;fontSize=14;" vertex="1" parent="1">
          <mxGeometry x="-1160" y="-2440" width="120" height="40" as="geometry" />
        </mxCell>
        <mxCell id="F2Yh3sDUFO-WP7J78He4-8" value="Feature" style="rounded=1;whiteSpace=wrap;html=1;fillColor=#fff2cc;strokeColor=#d6b656;fontSize=14;" vertex="1" parent="1">
          <mxGeometry x="-1160" y="-2360" width="120" height="40" as="geometry" />
        </mxCell>
        <mxCell id="F2Yh3sDUFO-WP7J78He4-9" value="Testing" style="rounded=1;whiteSpace=wrap;html=1;fillColor=#ffe6cc;strokeColor=#d79b00;fontSize=14;" vertex="1" parent="1">
          <mxGeometry x="-1160" y="-2520" width="120" height="40" as="geometry" />
        </mxCell>
        <mxCell id="F2Yh3sDUFO-WP7J78He4-10" style="edgeStyle=orthogonalEdgeStyle;curved=1;rounded=0;orthogonalLoop=1;jettySize=auto;html=1;exitX=0;exitY=0.5;exitDx=0;exitDy=0;entryX=0;entryY=0;entryDx=0;entryDy=0;endArrow=none;endFill=0;fillColor=#ffe6cc;strokeColor=#d79b00;strokeWidth=3;" edge="1" parent="1">
          <mxGeometry relative="1" as="geometry">
            <mxPoint x="-520" y="-2540" as="targetPoint" />
            <mxPoint x="-480" y="-2580" as="sourcePoint" />
          </mxGeometry>
        </mxCell>
        <mxCell id="F2Yh3sDUFO-WP7J78He4-11" value="" style="ellipse;whiteSpace=wrap;html=1;aspect=fixed;fillColor=#e1d5e7;strokeColor=#9673a6;strokeWidth=2;" vertex="1" parent="1">
          <mxGeometry x="-840" y="-2440" width="40" height="40" as="geometry" />
        </mxCell>
        <mxCell id="F2Yh3sDUFO-WP7J78He4-12" value="" style="ellipse;whiteSpace=wrap;html=1;aspect=fixed;fillColor=#dae8fc;strokeColor=#6c8ebf;strokeWidth=2;" vertex="1" parent="1">
          <mxGeometry x="-480" y="-2600" width="40" height="40" as="geometry" />
        </mxCell>
        <mxCell id="F2Yh3sDUFO-WP7J78He4-13" value="" style="ellipse;whiteSpace=wrap;html=1;aspect=fixed;fillColor=#fff2cc;strokeColor=#d6b656;strokeWidth=2;" vertex="1" parent="1">
          <mxGeometry x="-720" y="-2360" width="40" height="40" as="geometry" />
        </mxCell>
        <mxCell id="F2Yh3sDUFO-WP7J78He4-14" style="edgeStyle=orthogonalEdgeStyle;curved=1;rounded=0;orthogonalLoop=1;jettySize=auto;html=1;exitX=0;exitY=0.5;exitDx=0;exitDy=0;entryX=0.5;entryY=1;entryDx=0;entryDy=0;endArrow=none;endFill=0;strokeWidth=3;fillColor=#fff2cc;strokeColor=#d6b656;" edge="1" parent="1">
          <mxGeometry relative="1" as="geometry">
            <mxPoint x="-720" y="-2340" as="sourcePoint" />
            <mxPoint x="-760" y="-2380" as="targetPoint" />
          </mxGeometry>
        </mxCell>
        <mxCell id="F2Yh3sDUFO-WP7J78He4-15" style="edgeStyle=orthogonalEdgeStyle;rounded=0;orthogonalLoop=1;jettySize=auto;html=1;exitX=1;exitY=0.5;exitDx=0;exitDy=0;entryX=0.5;entryY=0;entryDx=0;entryDy=0;curved=1;endArrow=none;endFill=0;strokeWidth=3;fillColor=#fff2cc;strokeColor=#d6b656;" edge="1" parent="1">
          <mxGeometry relative="1" as="geometry">
            <mxPoint x="-800" y="-2420" as="sourcePoint" />
            <mxPoint x="-760" y="-2380" as="targetPoint" />
          </mxGeometry>
        </mxCell>
        <mxCell id="F2Yh3sDUFO-WP7J78He4-16" style="edgeStyle=orthogonalEdgeStyle;curved=1;rounded=0;orthogonalLoop=1;jettySize=auto;html=1;exitX=0;exitY=0.5;exitDx=0;exitDy=0;entryX=0;entryY=0;entryDx=0;entryDy=0;endArrow=none;endFill=0;strokeWidth=3;fillColor=#fff2cc;strokeColor=#d6b656;" edge="1" parent="1">
          <mxGeometry relative="1" as="geometry">
            <mxPoint x="-640" y="-2460" as="targetPoint" />
            <mxPoint x="-600" y="-2500" as="sourcePoint" />
          </mxGeometry>
        </mxCell>
        <mxCell id="F2Yh3sDUFO-WP7J78He4-17" style="edgeStyle=orthogonalEdgeStyle;curved=1;rounded=0;orthogonalLoop=1;jettySize=auto;html=1;exitX=1;exitY=0.5;exitDx=0;exitDy=0;entryX=1;entryY=1;entryDx=0;entryDy=0;endArrow=none;endFill=0;strokeWidth=3;fillColor=#fff2cc;strokeColor=#d6b656;" edge="1" parent="1">
          <mxGeometry relative="1" as="geometry">
            <mxPoint x="-680" y="-2340" as="sourcePoint" />
            <mxPoint x="-640" y="-2380" as="targetPoint" />
          </mxGeometry>
        </mxCell>
        <mxCell id="F2Yh3sDUFO-WP7J78He4-18" value="" style="ellipse;whiteSpace=wrap;html=1;aspect=fixed;fillColor=#ffe6cc;strokeColor=#d79b00;strokeWidth=2;" vertex="1" parent="1">
          <mxGeometry x="-600" y="-2520" width="40" height="40" as="geometry" />
        </mxCell>
        <mxCell id="F2Yh3sDUFO-WP7J78He4-19" style="edgeStyle=orthogonalEdgeStyle;curved=1;rounded=0;orthogonalLoop=1;jettySize=auto;html=1;exitX=1;exitY=0.5;exitDx=0;exitDy=0;entryX=1;entryY=1;entryDx=0;entryDy=0;endArrow=none;endFill=0;fillColor=#ffe6cc;strokeColor=#d79b00;strokeWidth=3;" edge="1" parent="1">
          <mxGeometry relative="1" as="geometry">
            <mxPoint x="-560" y="-2500" as="sourcePoint" />
            <mxPoint x="-520" y="-2540" as="targetPoint" />
          </mxGeometry>
        </mxCell>
        <mxCell id="F2Yh3sDUFO-WP7J78He4-20" value="Production" style="rounded=1;whiteSpace=wrap;html=1;fillColor=#d5e8d4;strokeColor=#82b366;fontSize=14;" vertex="1" parent="1">
          <mxGeometry x="-1160" y="-2680" width="120" height="40" as="geometry" />
        </mxCell>
        <mxCell id="F2Yh3sDUFO-WP7J78He4-21" value="" style="ellipse;whiteSpace=wrap;html=1;aspect=fixed;fillColor=#d5e8d4;strokeColor=#82b366;strokeWidth=2;" vertex="1" parent="1">
          <mxGeometry x="-360" y="-2680" width="40" height="40" as="geometry" />
        </mxCell>
        <mxCell id="F2Yh3sDUFO-WP7J78He4-22" style="edgeStyle=orthogonalEdgeStyle;curved=1;rounded=0;orthogonalLoop=1;jettySize=auto;html=1;endArrow=none;endFill=0;strokeWidth=3;fillColor=#fff2cc;strokeColor=#d6b656;" edge="1" parent="1">
          <mxGeometry relative="1" as="geometry">
            <mxPoint x="-640" y="-2380" as="targetPoint" />
            <mxPoint x="-640" y="-2460" as="sourcePoint" />
          </mxGeometry>
        </mxCell>
        <mxCell id="F2Yh3sDUFO-WP7J78He4-23" style="edgeStyle=orthogonalEdgeStyle;curved=1;rounded=0;orthogonalLoop=1;jettySize=auto;html=1;exitX=0;exitY=0.5;exitDx=0;exitDy=0;entryX=0;entryY=0;entryDx=0;entryDy=0;endArrow=none;endFill=0;fillColor=#dae8fc;strokeColor=#6c8ebf;strokeWidth=3;" edge="1" parent="1">
          <mxGeometry relative="1" as="geometry">
            <mxPoint x="-400" y="-2620" as="targetPoint" />
            <mxPoint x="-360" y="-2660" as="sourcePoint" />
          </mxGeometry>
        </mxCell>
        <mxCell id="F2Yh3sDUFO-WP7J78He4-24" style="edgeStyle=orthogonalEdgeStyle;curved=1;rounded=0;orthogonalLoop=1;jettySize=auto;html=1;exitX=1;exitY=0.5;exitDx=0;exitDy=0;entryX=1;entryY=1;entryDx=0;entryDy=0;endArrow=none;endFill=0;fillColor=#dae8fc;strokeColor=#6c8ebf;strokeWidth=3;" edge="1" parent="1">
          <mxGeometry relative="1" as="geometry">
            <mxPoint x="-440" y="-2580" as="sourcePoint" />
            <mxPoint x="-400" y="-2620" as="targetPoint" />
          </mxGeometry>
        </mxCell>
        <mxCell id="F2Yh3sDUFO-WP7J78He4-25" style="edgeStyle=orthogonalEdgeStyle;rounded=0;orthogonalLoop=1;jettySize=auto;html=1;exitX=1;exitY=0.5;exitDx=0;exitDy=0;entryX=0.5;entryY=0;entryDx=0;entryDy=0;curved=1;endArrow=none;endFill=0;strokeWidth=3;fillColor=#e1d5e7;strokeColor=#9673a6;" edge="1" parent="1">
          <mxGeometry relative="1" as="geometry">
            <mxPoint x="-880" y="-2620" as="targetPoint" />
            <mxPoint x="-920" y="-2660" as="sourcePoint" />
          </mxGeometry>
        </mxCell>
        <mxCell id="F2Yh3sDUFO-WP7J78He4-26" style="edgeStyle=orthogonalEdgeStyle;curved=1;rounded=0;orthogonalLoop=1;jettySize=auto;html=1;exitX=0;exitY=0.5;exitDx=0;exitDy=0;entryX=0.5;entryY=1;entryDx=0;entryDy=0;endArrow=none;endFill=0;strokeWidth=3;fillColor=#e1d5e7;strokeColor=#9673a6;" edge="1" parent="1">
          <mxGeometry relative="1" as="geometry">
            <mxPoint x="-880" y="-2460" as="targetPoint" />
            <mxPoint x="-840" y="-2420" as="sourcePoint" />
          </mxGeometry>
        </mxCell>
        <mxCell id="F2Yh3sDUFO-WP7J78He4-27" style="edgeStyle=orthogonalEdgeStyle;curved=1;rounded=0;orthogonalLoop=1;jettySize=auto;html=1;endArrow=none;endFill=0;strokeWidth=3;fillColor=#e1d5e7;strokeColor=#9673a6;" edge="1" parent="1">
          <mxGeometry relative="1" as="geometry">
            <mxPoint x="-880" y="-2460" as="targetPoint" />
            <mxPoint x="-880" y="-2620" as="sourcePoint" />
          </mxGeometry>
        </mxCell>
        <mxCell id="F2Yh3sDUFO-WP7J78He4-28" value="" style="ellipse;whiteSpace=wrap;html=1;aspect=fixed;fillColor=#d5e8d4;strokeColor=#82b366;strokeWidth=2;" vertex="1" parent="1">
          <mxGeometry x="-960" y="-2680" width="40" height="40" as="geometry" />
        </mxCell>
      </root>
    </mxGraphModel>
  </diagram>
</mxfile>
